<?xml version="1.0" encoding="UTF-8" standalone="no"?>
<!DOCTYPE svg PUBLIC "-//W3C//DTD SVG 1.1//EN"
 "http://www.w3.org/Graphics/SVG/1.1/DTD/svg11.dtd">
<!-- Generated by graphviz version 7.1.0 (0)
 -->
<!-- Title: beagleg Pages: 1 -->
<svg width="634pt" height="778pt"
 viewBox="0.00 0.00 634.18 777.85" xmlns="http://www.w3.org/2000/svg" xmlns:xlink="http://www.w3.org/1999/xlink">
<g id="graph0" class="graph" transform="scale(1 1) rotate(0) translate(4 773.85)">
<title>beagleg</title>
<polygon fill="white" stroke="none" points="-4,4 -4,-773.85 630.18,-773.85 630.18,4 -4,4"/>
<!-- TCP -->
<g id="node1" class="node">
<title>TCP</title>
<ellipse fill="none" stroke="black" cx="179.05" cy="-751.85" rx="40.74" ry="18"/>
<text text-anchor="middle" x="179.05" y="-749.35" font-family="Helvetica,sans-Serif" font-size="10.00">TCP socket</text>
</g>
<!-- GCodeParser -->
<g id="node2" class="node">
<title>GCodeParser</title>
<polygon fill="none" stroke="black" points="267.55,-683.64 188.55,-683.64 188.55,-647.64 267.55,-647.64 267.55,-683.64"/>
<text text-anchor="middle" x="228.05" y="-663.14" font-family="Helvetica,sans-Serif" font-size="10.00">GCodeParser</text>
</g>
<!-- TCP&#45;&gt;GCodeParser -->
<g id="edge2" class="edge">
<title>TCP&#45;&gt;GCodeParser</title>
<path fill="none" stroke="black" d="M188.73,-734.21C195.45,-722.68 204.54,-707.06 212.28,-693.74"/>
<polygon fill="black" stroke="black" points="215.12,-695.82 217.13,-685.42 209.07,-692.3 215.12,-695.82"/>
<text text-anchor="middle" x="223.55" y="-707.85" font-family="Helvetica,sans-Serif" font-size="10.00">G&#45;Code</text>
</g>
<!-- GCodeMachineControl -->
<g id="node3" class="node">
<title>GCodeMachineControl</title>
<polygon fill="none" stroke="black" points="290.55,-572.21 165.55,-572.21 165.55,-536.21 290.55,-536.21 290.55,-572.21"/>
<text text-anchor="middle" x="228.05" y="-557.21" font-family="Helvetica,sans-Serif" font-size="10.00">GCodeMachineControl</text>
<text text-anchor="middle" x="228.05" y="-546.21" font-family="Helvetica,sans-Serif" font-size="10.00">GCode Actions</text>
</g>
<!-- GCodeParser&#45;&gt;GCodeMachineControl -->
<g id="edge3" class="edge">
<title>GCodeParser&#45;&gt;GCodeMachineControl</title>
<path fill="none" stroke="black" d="M228.05,-647.54C228.05,-630.54 228.05,-604.14 228.05,-583.92"/>
<polygon fill="black" stroke="black" points="231.55,-584.07 228.05,-574.07 224.55,-584.07 231.55,-584.07"/>
<text text-anchor="start" x="228.05" y="-618.43" font-family="Helvetica,sans-Serif" font-size="10.00"> Parse Events;</text>
<text text-anchor="start" x="228.05" y="-607.43" font-family="Helvetica,sans-Serif" font-size="10.00"> Metric coordinates.</text>
<text text-anchor="middle" x="279.55" y="-596.43" font-family="Helvetica,sans-Serif" font-size="10.00"> Logic axes (X, Y, Z..)</text>
</g>
<!-- HardwareMapping -->
<g id="node4" class="node">
<title>HardwareMapping</title>
<polygon fill="none" stroke="black" points="513.05,-572.21 407.05,-572.21 407.05,-536.21 513.05,-536.21 513.05,-572.21"/>
<text text-anchor="middle" x="460.05" y="-551.71" font-family="Helvetica,sans-Serif" font-size="10.00">HardwareMapping</text>
</g>
<!-- GCodeMachineControl&#45;&gt;HardwareMapping -->
<g id="edge15" class="edge">
<title>GCodeMachineControl&#45;&gt;HardwareMapping</title>
<path fill="none" stroke="black" d="M290.84,-554.21C323.25,-554.21 362.74,-554.21 395.41,-554.21"/>
<polygon fill="black" stroke="black" points="395.15,-557.71 405.15,-554.21 395.15,-550.71 395.15,-557.71"/>
<text text-anchor="middle" x="348.8" y="-571.21" font-family="Helvetica,sans-Serif" font-size="10.00">Request Output</text>
<text text-anchor="middle" x="348.8" y="-560.21" font-family="Helvetica,sans-Serif" font-size="10.00">PWM, Spindle, Fan...</text>
</g>
<!-- Planner -->
<g id="node5" class="node">
<title>Planner</title>
<polygon fill="none" stroke="black" points="352.05,-475 298.05,-475 298.05,-439 352.05,-439 352.05,-475"/>
<text text-anchor="middle" x="325.05" y="-454.5" font-family="Helvetica,sans-Serif" font-size="10.00">Planner</text>
</g>
<!-- GCodeMachineControl&#45;&gt;Planner -->
<g id="edge4" class="edge">
<title>GCodeMachineControl&#45;&gt;Planner</title>
<path fill="none" stroke="black" d="M223.45,-535.76C221.1,-522.78 220.32,-505.26 229.05,-493 242.11,-474.68 265.78,-465.92 286.36,-461.74"/>
<polygon fill="black" stroke="black" points="286.93,-465.2 296.2,-460.08 285.76,-458.3 286.93,-465.2"/>
<text text-anchor="start" x="229.05" y="-507" font-family="Helvetica,sans-Serif" font-size="10.00"> Absolute target position sequence</text>
<text text-anchor="middle" x="314.05" y="-496" font-family="Helvetica,sans-Serif" font-size="10.00"> with desired speed.</text>
</g>
<!-- HardwareMapping&#45;&gt;GCodeMachineControl -->
<g id="edge16" class="edge">
<title>HardwareMapping&#45;&gt;GCodeMachineControl</title>
<path fill="none" stroke="black" d="M406.96,-543.25C399.06,-541.99 390.99,-540.91 383.3,-540.21 352.76,-537.45 344.87,-537.75 314.3,-540.21 310.41,-540.53 306.42,-540.92 302.4,-541.37"/>
<polygon fill="black" stroke="black" points="302.02,-537.89 292.53,-542.6 302.89,-544.84 302.02,-537.89"/>
<text text-anchor="middle" x="348.8" y="-543.21" font-family="Helvetica,sans-Serif" font-size="10.00">Switch status.</text>
</g>
<!-- HardwareMapping&#45;&gt;Planner -->
<g id="edge17" class="edge">
<title>HardwareMapping&#45;&gt;Planner</title>
<path fill="none" stroke="black" d="M439.94,-535.8C432.85,-529.44 424.93,-522.06 418.05,-515 409.04,-505.75 409.34,-500.82 399.05,-493 388.12,-484.68 374.89,-477.66 362.65,-472.13"/>
<polygon fill="black" stroke="black" points="364.21,-468.99 353.64,-468.26 361.45,-475.42 364.21,-468.99"/>
<text text-anchor="middle" x="477.05" y="-501.5" font-family="Helvetica,sans-Serif" font-size="10.00">Axis &#45;&gt; motor mapping.</text>
</g>
<!-- PinToggeling -->
<g id="node19" class="node">
<title>PinToggeling</title>
<path fill="none" stroke="black" d="M582.55,-475C582.55,-475 525.55,-475 525.55,-475 519.55,-475 513.55,-469 513.55,-463 513.55,-463 513.55,-451 513.55,-451 513.55,-445 519.55,-439 525.55,-439 525.55,-439 582.55,-439 582.55,-439 588.55,-439 594.55,-445 594.55,-451 594.55,-451 594.55,-463 594.55,-463 594.55,-469 588.55,-475 582.55,-475"/>
<text text-anchor="middle" x="554.05" y="-460" font-family="Helvetica,sans-Serif" font-size="10.00">Pin Toggling,</text>
<text text-anchor="middle" x="554.05" y="-449" font-family="Helvetica,sans-Serif" font-size="10.00">PWM control.</text>
</g>
<!-- HardwareMapping&#45;&gt;PinToggeling -->
<g id="edge21" class="edge">
<title>HardwareMapping&#45;&gt;PinToggeling</title>
<path fill="none" stroke="black" d="M513.38,-535.91C523.41,-530.57 532.96,-523.72 540.05,-515 546.57,-506.99 550.12,-496.39 552.03,-486.5"/>
<polygon fill="black" stroke="black" points="555.45,-487.32 553.39,-476.92 548.52,-486.33 555.45,-487.32"/>
</g>
<!-- SegmentQueue -->
<g id="node6" class="node">
<title>SegmentQueue</title>
<polygon fill="none" stroke="black" points="396.05,-370 254.05,-370 254.05,-329 396.05,-329 396.05,-370"/>
<text text-anchor="middle" x="325.05" y="-358" font-family="Helvetica,sans-Serif" font-size="10.00">SegmentQueue</text>
<text text-anchor="middle" x="325.05" y="-347" font-family="Helvetica,sans-Serif" font-size="10.00">Pass LinearSegmentSteps</text>
<text text-anchor="middle" x="325.05" y="-336" font-family="Helvetica,sans-Serif" font-size="10.00">to backend</text>
</g>
<!-- Planner&#45;&gt;SegmentQueue -->
<g id="edge5" class="edge">
<title>Planner&#45;&gt;SegmentQueue</title>
<path fill="none" stroke="black" d="M325.05,-438.58C325.05,-423.22 325.05,-400.45 325.05,-381.92"/>
<polygon fill="black" stroke="black" points="328.55,-381.98 325.05,-371.98 321.55,-381.98 328.55,-381.98"/>
<text text-anchor="start" x="325.05" y="-413" font-family="Helvetica,sans-Serif" font-size="10.00"> Delta LinearSegmentSteps</text>
<text text-anchor="start" x="325.05" y="-402" font-family="Helvetica,sans-Serif" font-size="10.00"> Step coordinates.</text>
<text text-anchor="middle" x="421.55" y="-391" font-family="Helvetica,sans-Serif" font-size="10.00"> Logic axes assigned to motors 1, 2, 3...</text>
</g>
<!-- MotionQueueMotorOperations -->
<g id="node7" class="node">
<title>MotionQueueMotorOperations</title>
<polygon fill="none" stroke="black" points="346.05,-292 158.05,-292 158.05,-240 346.05,-240 346.05,-292"/>
<text text-anchor="middle" x="252.05" y="-280" font-family="Helvetica,sans-Serif" font-size="10.00">MotionQueueMotorOperations</text>
<text text-anchor="middle" x="252.05" y="-269" font-family="Helvetica,sans-Serif" font-size="10.00">Convert segments</text>
<text text-anchor="middle" x="252.05" y="-258" font-family="Helvetica,sans-Serif" font-size="10.00">into MotionSegment commands</text>
<text text-anchor="middle" x="252.05" y="-247" font-family="Helvetica,sans-Serif" font-size="10.00">for MotionQueue implementations.</text>
</g>
<!-- SegmentQueue&#45;&gt;MotionQueueMotorOperations -->
<g id="edge6" class="edge">
<title>SegmentQueue&#45;&gt;MotionQueueMotorOperations</title>
<path fill="none" stroke="black" d="M307.38,-328.77C299.89,-320.4 290.93,-310.41 282.44,-300.92"/>
<polygon fill="black" stroke="black" points="285.1,-298.65 275.82,-293.54 279.89,-303.32 285.1,-298.65"/>
</g>
<!-- GCode2PS -->
<g id="node12" class="node">
<title>GCode2PS</title>
<polygon fill="none" stroke="black" stroke-dasharray="1,5" points="431.55,-284 364.55,-284 364.55,-248 431.55,-248 431.55,-284"/>
<text text-anchor="middle" x="398.05" y="-263.5" font-family="Helvetica,sans-Serif" font-size="10.00">GCode2PS</text>
</g>
<!-- SegmentQueue&#45;&gt;GCode2PS -->
<g id="edge12" class="edge">
<title>SegmentQueue&#45;&gt;GCode2PS</title>
<path fill="none" stroke="black" d="M342.73,-328.77C352.41,-317.96 364.53,-304.43 374.95,-292.79"/>
<polygon fill="black" stroke="black" points="377.45,-295.25 381.52,-285.46 372.24,-290.57 377.45,-295.25"/>
</g>
<!-- DummyMotionQueue -->
<g id="node8" class="node">
<title>DummyMotionQueue</title>
<polygon fill="none" stroke="black" stroke-dasharray="1,5" points="125.55,-203 4.55,-203 4.55,-167 125.55,-167 125.55,-203"/>
<text text-anchor="middle" x="65.05" y="-188" font-family="Helvetica,sans-Serif" font-size="10.00">DummyMotionQueue</text>
<text text-anchor="middle" x="65.05" y="-177" font-family="Helvetica,sans-Serif" font-size="10.00">for dryrun.</text>
</g>
<!-- MotionQueueMotorOperations&#45;&gt;DummyMotionQueue -->
<g id="edge11" class="edge">
<title>MotionQueueMotorOperations&#45;&gt;DummyMotionQueue</title>
<path fill="none" stroke="black" d="M191.86,-239.57C167.6,-229.32 139.9,-217.62 116.59,-207.77"/>
<polygon fill="black" stroke="black" points="118.19,-204.65 107.61,-203.98 115.46,-211.1 118.19,-204.65"/>
</g>
<!-- PRUMotionQueue -->
<g id="node9" class="node">
<title>PRUMotionQueue</title>
<polygon fill="none" stroke="black" points="246.05,-203 144.05,-203 144.05,-167 246.05,-167 246.05,-203"/>
<text text-anchor="middle" x="195.05" y="-182.5" font-family="Helvetica,sans-Serif" font-size="10.00">PRUMotionQueue</text>
</g>
<!-- MotionQueueMotorOperations&#45;&gt;PRUMotionQueue -->
<g id="edge7" class="edge">
<title>MotionQueueMotorOperations&#45;&gt;PRUMotionQueue</title>
<path fill="none" stroke="black" d="M233.7,-239.57C227.4,-230.82 220.32,-221.02 213.97,-212.21"/>
<polygon fill="black" stroke="black" points="217,-210.44 208.31,-204.38 211.32,-214.53 217,-210.44"/>
</g>
<!-- SimFirmwareQueue -->
<g id="node10" class="node">
<title>SimFirmwareQueue</title>
<polygon fill="none" stroke="black" stroke-dasharray="1,5" points="377.55,-203 264.55,-203 264.55,-167 377.55,-167 377.55,-203"/>
<text text-anchor="middle" x="321.05" y="-188" font-family="Helvetica,sans-Serif" font-size="10.00">SimFirmwareQueue</text>
<text text-anchor="middle" x="321.05" y="-177" font-family="Helvetica,sans-Serif" font-size="10.00">Simulating PRU</text>
</g>
<!-- MotionQueueMotorOperations&#45;&gt;SimFirmwareQueue -->
<g id="edge8" class="edge">
<title>MotionQueueMotorOperations&#45;&gt;SimFirmwareQueue</title>
<path fill="none" stroke="black" d="M274.27,-239.57C282.07,-230.64 290.83,-220.6 298.65,-211.65"/>
<polygon fill="black" stroke="black" points="301.14,-214.12 305.08,-204.29 295.87,-209.52 301.14,-214.12"/>
</g>
<!-- SimFirmwareAudioQueue -->
<g id="node11" class="node">
<title>SimFirmwareAudioQueue</title>
<polygon fill="none" stroke="black" stroke-dasharray="1,5" points="590.55,-203 395.55,-203 395.55,-167 590.55,-167 590.55,-203"/>
<text text-anchor="middle" x="493.05" y="-188" font-family="Helvetica,sans-Serif" font-size="10.00">SimFirmwareAudioQueue</text>
<text text-anchor="middle" x="493.05" y="-177" font-family="Helvetica,sans-Serif" font-size="10.00">Outputs stepper clocks as *.wav file.</text>
</g>
<!-- MotionQueueMotorOperations&#45;&gt;SimFirmwareAudioQueue -->
<g id="edge10" class="edge">
<title>MotionQueueMotorOperations&#45;&gt;SimFirmwareAudioQueue</title>
<path fill="none" stroke="black" d="M329.63,-239.57C361.88,-229 398.85,-216.88 429.46,-206.85"/>
<polygon fill="black" stroke="black" points="430.15,-210.3 438.56,-203.86 427.97,-203.65 430.15,-210.3"/>
</g>
<!-- PruHardwareInterface -->
<g id="node13" class="node">
<title>PruHardwareInterface</title>
<polygon fill="none" stroke="black" points="256.55,-130 133.55,-130 133.55,-94 256.55,-94 256.55,-130"/>
<text text-anchor="middle" x="195.05" y="-109.5" font-family="Helvetica,sans-Serif" font-size="10.00">PruHardwareInterface</text>
</g>
<!-- PRUMotionQueue&#45;&gt;PruHardwareInterface -->
<g id="edge13" class="edge">
<title>PRUMotionQueue&#45;&gt;PruHardwareInterface</title>
<path fill="none" stroke="black" d="M195.05,-166.81C195.05,-159.23 195.05,-150.1 195.05,-141.54"/>
<polygon fill="black" stroke="black" points="198.55,-141.54 195.05,-131.54 191.55,-141.54 198.55,-141.54"/>
</g>
<!-- GNUPlotOutput -->
<g id="node18" class="node">
<title>GNUPlotOutput</title>
<polygon fill="none" stroke="black" stroke-dasharray="1,5" points="366.55,-130 275.55,-130 275.55,-94 366.55,-94 366.55,-130"/>
<text text-anchor="middle" x="321.05" y="-109.5" font-family="Helvetica,sans-Serif" font-size="10.00">GNUPlotOutput</text>
</g>
<!-- SimFirmwareQueue&#45;&gt;GNUPlotOutput -->
<g id="edge9" class="edge">
<title>SimFirmwareQueue&#45;&gt;GNUPlotOutput</title>
<path fill="none" stroke="black" d="M321.05,-166.81C321.05,-159.23 321.05,-150.1 321.05,-141.54"/>
<polygon fill="black" stroke="black" points="324.55,-141.54 321.05,-131.54 317.55,-141.54 324.55,-141.54"/>
</g>
<!-- PRU -->
<g id="node20" class="node">
<title>PRU</title>
<path fill="none" stroke="black" d="M247.55,-36C247.55,-36 142.55,-36 142.55,-36 136.55,-36 130.55,-30 130.55,-24 130.55,-24 130.55,-12 130.55,-12 130.55,-6 136.55,0 142.55,0 142.55,0 247.55,0 247.55,0 253.55,0 259.55,-6 259.55,-12 259.55,-12 259.55,-24 259.55,-24 259.55,-30 253.55,-36 247.55,-36"/>
<text text-anchor="middle" x="195.05" y="-21" font-family="Helvetica,sans-Serif" font-size="10.00">PRU firmware</text>
<text text-anchor="middle" x="195.05" y="-10" font-family="Helvetica,sans-Serif" font-size="10.00">(motor&#45;interface&#45;pru.p)</text>
</g>
<!-- PruHardwareInterface&#45;&gt;PRU -->
<g id="edge14" class="edge">
<title>PruHardwareInterface&#45;&gt;PRU</title>
<path fill="none" stroke="black" d="M195.05,-93.7C195.05,-80.72 195.05,-62.66 195.05,-47.56"/>
<polygon fill="black" stroke="black" points="198.55,-47.74 195.05,-37.74 191.55,-47.74 198.55,-47.74"/>
<text text-anchor="start" x="195.05" y="-68" font-family="Helvetica,sans-Serif" font-size="10.00"> Host → PRU</text>
<text text-anchor="middle" x="225.55" y="-57" font-family="Helvetica,sans-Serif" font-size="10.00">ringbuffer</text>
</g>
<!-- GCodeFile -->
<g id="node14" class="node">
<title>GCodeFile</title>
<ellipse fill="none" stroke="black" cx="278.05" cy="-751.85" rx="40.74" ry="18"/>
<text text-anchor="middle" x="278.05" y="-749.35" font-family="Helvetica,sans-Serif" font-size="10.00">GCode File</text>
</g>
<!-- GCodeFile&#45;&gt;GCodeParser -->
<g id="edge1" class="edge">
<title>GCodeFile&#45;&gt;GCodeParser</title>
<path fill="none" stroke="black" stroke-dasharray="1,5" d="M268.18,-734.21C261.33,-722.68 252.05,-707.06 244.15,-693.74"/>
<polygon fill="black" stroke="black" points="247.32,-692.23 239.2,-685.41 241.3,-695.8 247.32,-692.23"/>
<text text-anchor="middle" x="273.55" y="-707.85" font-family="Helvetica,sans-Serif" font-size="10.00">G&#45;Code</text>
</g>
<!-- CapeConfig -->
<g id="node15" class="node">
<title>CapeConfig</title>
<ellipse fill="none" stroke="black" cx="403.05" cy="-665.64" rx="60.62" ry="21.43"/>
<text text-anchor="middle" x="403.05" y="-668.64" font-family="Helvetica,sans-Serif" font-size="10.00">Cape config in</text>
<text text-anchor="middle" x="403.05" y="-657.64" font-family="Helvetica,sans-Serif" font-size="10.00">hardware/</text>
</g>
<!-- CapeConfig&#45;&gt;HardwareMapping -->
<g id="edge19" class="edge">
<title>CapeConfig&#45;&gt;HardwareMapping</title>
<path fill="none" stroke="black" d="M413.78,-644.06C422.82,-626.69 435.85,-601.69 445.77,-582.63"/>
<polygon fill="black" stroke="black" points="448.85,-584.29 450.37,-573.81 442.64,-581.06 448.85,-584.29"/>
</g>
<!-- UserMapConfig -->
<g id="node16" class="node">
<title>UserMapConfig</title>
<ellipse fill="none" stroke="black" cx="554.05" cy="-665.64" rx="72.25" ry="21.43"/>
<text text-anchor="middle" x="554.05" y="-668.64" font-family="Helvetica,sans-Serif" font-size="10.00">User config file:</text>
<text text-anchor="middle" x="554.05" y="-657.64" font-family="Helvetica,sans-Serif" font-size="10.00">Mapping sections</text>
</g>
<!-- UserMapConfig&#45;&gt;HardwareMapping -->
<g id="edge20" class="edge">
<title>UserMapConfig&#45;&gt;HardwareMapping</title>
<path fill="none" stroke="black" d="M536.81,-644.57C521.53,-626.78 499.12,-600.69 482.45,-581.29"/>
<polygon fill="black" stroke="black" points="485.17,-579.08 476,-573.78 479.86,-583.65 485.17,-579.08"/>
</g>
<!-- UserAxisConfig -->
<g id="node17" class="node">
<title>UserAxisConfig</title>
<ellipse fill="none" stroke="black" cx="65.05" cy="-554.21" rx="65.11" ry="21.43"/>
<text text-anchor="middle" x="65.05" y="-557.21" font-family="Helvetica,sans-Serif" font-size="10.00">User config file:</text>
<text text-anchor="middle" x="65.05" y="-546.21" font-family="Helvetica,sans-Serif" font-size="10.00">Axis sections</text>
</g>
<!-- UserAxisConfig&#45;&gt;GCodeMachineControl -->
<g id="edge18" class="edge">
<title>UserAxisConfig&#45;&gt;GCodeMachineControl</title>
<path fill="none" stroke="black" d="M130.64,-554.21C138.39,-554.21 146.15,-554.21 153.9,-554.21"/>
<polygon fill="black" stroke="black" points="153.75,-557.71 163.75,-554.21 153.75,-550.71 153.75,-557.71"/>
</g>
</g>
</svg>
