<?xml version="1.0" encoding="UTF-8" standalone="no"?>
<!DOCTYPE svg PUBLIC "-//W3C//DTD SVG 1.1//EN"
 "http://www.w3.org/Graphics/SVG/1.1/DTD/svg11.dtd">
<!-- Generated by graphviz version 2.38.0 (20140413.2041)
 -->
<!-- Title: beagleg Pages: 1 -->
<svg width="598pt" height="544pt"
 viewBox="0.00 0.00 597.57 544.28" xmlns="http://www.w3.org/2000/svg" xmlns:xlink="http://www.w3.org/1999/xlink">
<g id="graph0" class="graph" transform="scale(1 1) rotate(0) translate(4 540.279)">
<title>beagleg</title>
<polygon fill="white" stroke="none" points="-4,4 -4,-540.279 593.572,-540.279 593.572,4 -4,4"/>
<!-- TCP -->
<g id="node1" class="node"><title>TCP</title>
<ellipse fill="none" stroke="black" cx="171.811" cy="-518.279" rx="40.7358" ry="18"/>
<text text-anchor="middle" x="171.811" y="-515.779" font-family="Helvetica,sans-Serif" font-size="10.00">TCP socket</text>
</g>
<!-- GCodeParser -->
<g id="node2" class="node"><title>GCodeParser</title>
<polygon fill="none" stroke="black" points="252.811,-450.066 176.811,-450.066 176.811,-414.066 252.811,-414.066 252.811,-450.066"/>
<text text-anchor="middle" x="214.811" y="-429.566" font-family="Helvetica,sans-Serif" font-size="10.00">GCodeParser</text>
</g>
<!-- TCP&#45;&gt;GCodeParser -->
<g id="edge2" class="edge"><title>TCP&#45;&gt;GCodeParser</title>
<path fill="none" stroke="black" d="M180.307,-500.641C186.294,-488.916 194.437,-472.969 201.308,-459.511"/>
<polygon fill="black" stroke="black" points="204.608,-460.745 206.038,-450.247 198.373,-457.562 204.608,-460.745"/>
<text text-anchor="middle" x="211.811" y="-474.279" font-family="Helvetica,sans-Serif" font-size="10.00">G&#45;Code</text>
</g>
<!-- GCodeMachineControl -->
<g id="node3" class="node"><title>GCodeMachineControl</title>
<polygon fill="none" stroke="black" points="272.811,-341.14 156.811,-341.14 156.811,-300.14 272.811,-300.14 272.811,-341.14"/>
<text text-anchor="middle" x="214.811" y="-329.14" font-family="Helvetica,sans-Serif" font-size="10.00">GCodeMachineControl</text>
<text text-anchor="middle" x="214.811" y="-318.14" font-family="Helvetica,sans-Serif" font-size="10.00">GCode Actions</text>
<text text-anchor="middle" x="214.811" y="-307.14" font-family="Helvetica,sans-Serif" font-size="10.00">Path planning</text>
</g>
<!-- GCodeParser&#45;&gt;GCodeMachineControl -->
<g id="edge3" class="edge"><title>GCodeParser&#45;&gt;GCodeMachineControl</title>
<path fill="none" stroke="black" d="M214.811,-413.968C214.811,-397.256 214.811,-371.468 214.811,-351.39"/>
<polygon fill="black" stroke="black" points="218.311,-351.203 214.811,-341.203 211.311,-351.203 218.311,-351.203"/>
<text text-anchor="start" x="214.811" y="-384.853" font-family="Helvetica,sans-Serif" font-size="10.00"> Parse Events;</text>
<text text-anchor="start" x="214.811" y="-373.853" font-family="Helvetica,sans-Serif" font-size="10.00"> Metric coordinates.</text>
<text text-anchor="middle" x="263.311" y="-362.853" font-family="Helvetica,sans-Serif" font-size="10.00"> Logic axes (X, Y, Z..)</text>
</g>
<!-- HardwareMapping -->
<g id="node4" class="node"><title>HardwareMapping</title>
<polygon fill="none" stroke="black" points="488.311,-338.64 393.311,-338.64 393.311,-302.64 488.311,-302.64 488.311,-338.64"/>
<text text-anchor="middle" x="440.811" y="-318.14" font-family="Helvetica,sans-Serif" font-size="10.00">HardwareMapping</text>
</g>
<!-- GCodeMachineControl&#45;&gt;HardwareMapping -->
<g id="edge10" class="edge"><title>GCodeMachineControl&#45;&gt;HardwareMapping</title>
<path fill="none" stroke="black" d="M266.826,-300.04C273.059,-298.236 279.398,-296.696 285.561,-295.64 327.176,-288.503 339.153,-287.39 380.561,-295.64 384.992,-296.522 389.504,-297.737 393.966,-299.159"/>
<polygon fill="black" stroke="black" points="393.005,-302.531 403.6,-302.553 395.332,-295.929 393.005,-302.531"/>
<text text-anchor="middle" x="333.061" y="-309.64" font-family="Helvetica,sans-Serif" font-size="10.00">Request Output</text>
<text text-anchor="middle" x="333.061" y="-298.64" font-family="Helvetica,sans-Serif" font-size="10.00">PWM, Spindle, Fan...</text>
</g>
<!-- MotorOperations -->
<g id="node5" class="node"><title>MotorOperations</title>
<polygon fill="none" stroke="black" points="276.811,-229.713 152.811,-229.713 152.811,-188.713 276.811,-188.713 276.811,-229.713"/>
<text text-anchor="middle" x="214.811" y="-217.713" font-family="Helvetica,sans-Serif" font-size="10.00">MotorOperations</text>
<text text-anchor="middle" x="214.811" y="-206.713" font-family="Helvetica,sans-Serif" font-size="10.00">Convert segments</text>
<text text-anchor="middle" x="214.811" y="-195.713" font-family="Helvetica,sans-Serif" font-size="10.00">into firmware commands</text>
</g>
<!-- GCodeMachineControl&#45;&gt;MotorOperations -->
<g id="edge4" class="edge"><title>GCodeMachineControl&#45;&gt;MotorOperations</title>
<path fill="none" stroke="black" d="M214.811,-300.076C214.811,-283.375 214.811,-259.094 214.811,-239.982"/>
<polygon fill="black" stroke="black" points="218.311,-239.976 214.811,-229.976 211.311,-239.976 218.311,-239.976"/>
<text text-anchor="start" x="214.811" y="-273.426" font-family="Helvetica,sans-Serif" font-size="10.00"> LinearSegmentSteps</text>
<text text-anchor="start" x="214.811" y="-262.426" font-family="Helvetica,sans-Serif" font-size="10.00"> Step coordinates.</text>
<text text-anchor="middle" x="303.311" y="-251.426" font-family="Helvetica,sans-Serif" font-size="10.00"> Logic axes assigned to motors 1, 2, 3...</text>
</g>
<!-- HardwareMapping&#45;&gt;GCodeMachineControl -->
<g id="edge11" class="edge"><title>HardwareMapping&#45;&gt;GCodeMachineControl</title>
<path fill="none" stroke="black" d="M393.087,-320.64C361.203,-320.64 318.767,-320.64 283.296,-320.64"/>
<polygon fill="black" stroke="black" points="283.012,-317.14 273.012,-320.64 283.012,-324.14 283.012,-317.14"/>
<text text-anchor="middle" x="333.061" y="-326.64" font-family="Helvetica,sans-Serif" font-size="10.00">Axis &#45;&gt; motor mapping.</text>
</g>
<!-- HardwareMapping&#45;&gt;GCodeMachineControl -->
<g id="edge12" class="edge"><title>HardwareMapping&#45;&gt;GCodeMachineControl</title>
<path fill="none" stroke="black" d="M393.088,-333.358C390.216,-333.861 387.358,-334.297 384.561,-334.64 342.052,-339.85 328.784,-339.446 282.912,-334.629"/>
<polygon fill="black" stroke="black" points="283.26,-331.146 272.947,-333.571 282.521,-338.107 283.26,-331.146"/>
<text text-anchor="middle" x="333.061" y="-343.64" font-family="Helvetica,sans-Serif" font-size="10.00">Switch status.</text>
</g>
<!-- PinToggeling -->
<g id="node14" class="node"><title>PinToggeling</title>
<ellipse fill="none" stroke="black" cx="440.811" cy="-209.213" rx="54.3945" ry="21.4286"/>
<text text-anchor="middle" x="440.811" y="-212.213" font-family="Helvetica,sans-Serif" font-size="10.00">Pin Toggling,</text>
<text text-anchor="middle" x="440.811" y="-201.213" font-family="Helvetica,sans-Serif" font-size="10.00">PWM control.</text>
</g>
<!-- HardwareMapping&#45;&gt;PinToggeling -->
<g id="edge16" class="edge"><title>HardwareMapping&#45;&gt;PinToggeling</title>
<path fill="none" stroke="black" d="M440.811,-302.542C440.811,-286.033 440.811,-260.669 440.811,-240.7"/>
<polygon fill="black" stroke="black" points="444.311,-240.539 440.811,-230.539 437.311,-240.539 444.311,-240.539"/>
</g>
<!-- DummyMotionQueue -->
<g id="node6" class="node"><title>DummyMotionQueue</title>
<polygon fill="none" stroke="black" stroke-dasharray="1,5" points="148.311,-130 39.3112,-130 39.3112,-94 148.311,-94 148.311,-130"/>
<text text-anchor="middle" x="93.8112" y="-115" font-family="Helvetica,sans-Serif" font-size="10.00">DummyMotionQueue</text>
<text text-anchor="middle" x="93.8112" y="-104" font-family="Helvetica,sans-Serif" font-size="10.00">for dryrun.</text>
</g>
<!-- MotorOperations&#45;&gt;DummyMotionQueue -->
<g id="edge8" class="edge"><title>MotorOperations&#45;&gt;DummyMotionQueue</title>
<path fill="none" stroke="black" d="M189.74,-188.485C170.515,-173.357 143.92,-152.43 123.607,-136.446"/>
<polygon fill="black" stroke="black" points="125.628,-133.583 115.605,-130.149 121.3,-139.084 125.628,-133.583"/>
</g>
<!-- PRUMotionQueue -->
<g id="node7" class="node"><title>PRUMotionQueue</title>
<polygon fill="none" stroke="black" points="262.811,-130 166.811,-130 166.811,-94 262.811,-94 262.811,-130"/>
<text text-anchor="middle" x="214.811" y="-109.5" font-family="Helvetica,sans-Serif" font-size="10.00">PRUMotionQueue</text>
</g>
<!-- MotorOperations&#45;&gt;PRUMotionQueue -->
<g id="edge5" class="edge"><title>MotorOperations&#45;&gt;PRUMotionQueue</title>
<path fill="none" stroke="black" d="M214.811,-188.485C214.811,-174.634 214.811,-155.923 214.811,-140.595"/>
<polygon fill="black" stroke="black" points="218.311,-140.149 214.811,-130.149 211.311,-140.149 218.311,-140.149"/>
<text text-anchor="start" x="214.811" y="-162" font-family="Helvetica,sans-Serif" font-size="10.00"> MotionSegment</text>
<text text-anchor="middle" x="254.311" y="-151" font-family="Helvetica,sans-Serif" font-size="10.00">Prepared for PRU</text>
</g>
<!-- SimFirmwareQueue -->
<g id="node8" class="node"><title>SimFirmwareQueue</title>
<polygon fill="none" stroke="black" stroke-dasharray="1,5" points="386.311,-130 283.311,-130 283.311,-94 386.311,-94 386.311,-130"/>
<text text-anchor="middle" x="334.811" y="-115" font-family="Helvetica,sans-Serif" font-size="10.00">SimFirmwareQueue</text>
<text text-anchor="middle" x="334.811" y="-104" font-family="Helvetica,sans-Serif" font-size="10.00">Simulating PRU</text>
</g>
<!-- MotorOperations&#45;&gt;SimFirmwareQueue -->
<g id="edge6" class="edge"><title>MotorOperations&#45;&gt;SimFirmwareQueue</title>
<path fill="none" stroke="black" d="M269.289,-188.515C279.403,-183.415 289.414,-177.266 297.811,-170 307.679,-161.462 315.927,-149.662 322.112,-139.013"/>
<polygon fill="black" stroke="black" points="325.28,-140.514 327.006,-130.061 319.138,-137.156 325.28,-140.514"/>
</g>
<!-- PRU -->
<g id="node9" class="node"><title>PRU</title>
<polygon fill="none" stroke="black" points="268.311,-36 155.311,-36 155.311,-0 268.311,-0 268.311,-36"/>
<text text-anchor="middle" x="211.811" y="-21" font-family="Helvetica,sans-Serif" font-size="10.00">PRU firmware</text>
<text text-anchor="middle" x="211.811" y="-10" font-family="Helvetica,sans-Serif" font-size="10.00">(motor&#45;interface&#45;pru.p)</text>
</g>
<!-- PRUMotionQueue&#45;&gt;PRU -->
<g id="edge9" class="edge"><title>PRUMotionQueue&#45;&gt;PRU</title>
<path fill="none" stroke="black" d="M214.247,-93.6955C213.815,-80.4599 213.212,-61.9471 212.713,-46.6634"/>
<polygon fill="black" stroke="black" points="216.197,-46.1075 212.373,-36.2269 209.201,-46.3357 216.197,-46.1075"/>
<text text-anchor="start" x="213.811" y="-68" font-family="Helvetica,sans-Serif" font-size="10.00">Host &#45;&gt; PRU</text>
<text text-anchor="middle" x="242.811" y="-57" font-family="Helvetica,sans-Serif" font-size="10.00">ringbuffer</text>
</g>
<!-- GNUPlotOutput -->
<g id="node13" class="node"><title>GNUPlotOutput</title>
<ellipse fill="none" stroke="black" stroke-dasharray="1,5" cx="336.811" cy="-18" rx="50.7503" ry="18"/>
<text text-anchor="middle" x="336.811" y="-15.5" font-family="Helvetica,sans-Serif" font-size="10.00">GNUPlotOutput</text>
</g>
<!-- SimFirmwareQueue&#45;&gt;GNUPlotOutput -->
<g id="edge7" class="edge"><title>SimFirmwareQueue&#45;&gt;GNUPlotOutput</title>
<path fill="none" stroke="black" d="M335.187,-93.6955C335.475,-80.4599 335.878,-61.9471 336.21,-46.6634"/>
<polygon fill="black" stroke="black" points="339.718,-46.3006 336.437,-36.2269 332.72,-46.1484 339.718,-46.3006"/>
</g>
<!-- CapeConfig -->
<g id="node10" class="node"><title>CapeConfig</title>
<ellipse fill="none" stroke="black" cx="383.811" cy="-432.066" rx="56.6372" ry="21.4286"/>
<text text-anchor="middle" x="383.811" y="-435.066" font-family="Helvetica,sans-Serif" font-size="10.00">Cape config in</text>
<text text-anchor="middle" x="383.811" y="-424.066" font-family="Helvetica,sans-Serif" font-size="10.00">hardware/</text>
</g>
<!-- CapeConfig&#45;&gt;HardwareMapping -->
<g id="edge14" class="edge"><title>CapeConfig&#45;&gt;HardwareMapping</title>
<path fill="none" stroke="black" d="M394.266,-410.996C403.546,-393.18 417.163,-367.039 427.273,-347.629"/>
<polygon fill="black" stroke="black" points="430.405,-349.193 431.921,-338.707 424.197,-345.959 430.405,-349.193"/>
</g>
<!-- UserMapConfig -->
<g id="node11" class="node"><title>UserMapConfig</title>
<ellipse fill="none" stroke="black" cx="523.811" cy="-432.066" rx="65.5227" ry="21.4286"/>
<text text-anchor="middle" x="523.811" y="-435.066" font-family="Helvetica,sans-Serif" font-size="10.00">User config file:</text>
<text text-anchor="middle" x="523.811" y="-424.066" font-family="Helvetica,sans-Serif" font-size="10.00">Mapping sections</text>
</g>
<!-- UserMapConfig&#45;&gt;HardwareMapping -->
<g id="edge15" class="edge"><title>UserMapConfig&#45;&gt;HardwareMapping</title>
<path fill="none" stroke="black" d="M508.781,-411.25C495.107,-393.223 474.855,-366.523 460.014,-346.957"/>
<polygon fill="black" stroke="black" points="462.652,-344.642 453.82,-338.79 457.075,-348.873 462.652,-344.642"/>
</g>
<!-- UserAxisConfig -->
<g id="node12" class="node"><title>UserAxisConfig</title>
<ellipse fill="none" stroke="black" cx="60.8112" cy="-320.64" rx="60.623" ry="21.4286"/>
<text text-anchor="middle" x="60.8112" y="-323.64" font-family="Helvetica,sans-Serif" font-size="10.00">User config file:</text>
<text text-anchor="middle" x="60.8112" y="-312.64" font-family="Helvetica,sans-Serif" font-size="10.00">Axis sections</text>
</g>
<!-- UserAxisConfig&#45;&gt;GCodeMachineControl -->
<g id="edge13" class="edge"><title>UserAxisConfig&#45;&gt;GCodeMachineControl</title>
<path fill="none" stroke="black" d="M121.87,-320.64C130.129,-320.64 138.389,-320.64 146.648,-320.64"/>
<polygon fill="black" stroke="black" points="146.723,-324.14 156.723,-320.64 146.723,-317.14 146.723,-324.14"/>
</g>
<!-- File -->
<g id="node15" class="node"><title>File</title>
<ellipse fill="none" stroke="black" cx="257.811" cy="-518.279" rx="27" ry="18"/>
<text text-anchor="middle" x="257.811" y="-515.779" font-family="Helvetica,sans-Serif" font-size="10.00">File</text>
</g>
<!-- File&#45;&gt;GCodeParser -->
<g id="edge1" class="edge"><title>File&#45;&gt;GCodeParser</title>
<path fill="none" stroke="black" stroke-dasharray="1,5" d="M249.52,-501.042C243.453,-489.159 235.093,-472.788 228.099,-459.089"/>
<polygon fill="black" stroke="black" points="231.184,-457.435 223.519,-450.12 224.95,-460.618 231.184,-457.435"/>
<text text-anchor="middle" x="256.811" y="-474.279" font-family="Helvetica,sans-Serif" font-size="10.00">G&#45;Code</text>
</g>
</g>
</svg>
