<?xml version="1.0" encoding="UTF-8" standalone="no"?>
<!DOCTYPE svg PUBLIC "-//W3C//DTD SVG 1.1//EN"
 "http://www.w3.org/Graphics/SVG/1.1/DTD/svg11.dtd">
<!-- Generated by graphviz version 7.1.0 (0)
 -->
<!-- Title: beagleg Pages: 1 -->
<svg width="185pt" height="483pt"
 viewBox="0.00 0.00 184.50 483.43" xmlns="http://www.w3.org/2000/svg" xmlns:xlink="http://www.w3.org/1999/xlink">
<g id="graph0" class="graph" transform="scale(1 1) rotate(0) translate(4 479.43)">
<title>beagleg</title>
<polygon fill="white" stroke="none" points="-4,4 -4,-479.43 180.5,-479.43 180.5,4 -4,4"/>
<!-- GCodeParser -->
<g id="node1" class="node">
<title>GCodeParser</title>
<polygon fill="none" stroke="black" points="112,-392.43 33,-392.43 33,-356.43 112,-356.43 112,-392.43"/>
<text text-anchor="middle" x="72.5" y="-371.93" font-family="Helvetica,sans-Serif" font-size="10.00">GCodeParser</text>
</g>
<!-- GCodeMachineControl -->
<g id="node2" class="node">
<title>GCodeMachineControl</title>
<polygon fill="none" stroke="black" points="135,-287.43 10,-287.43 10,-251.43 135,-251.43 135,-287.43"/>
<text text-anchor="middle" x="72.5" y="-272.43" font-family="Helvetica,sans-Serif" font-size="10.00">GCodeMachineControl</text>
<text text-anchor="middle" x="72.5" y="-261.43" font-family="Helvetica,sans-Serif" font-size="10.00">GCode Actions</text>
</g>
<!-- GCodeParser&#45;&gt;GCodeMachineControl -->
<g id="edge2" class="edge">
<title>GCodeParser&#45;&gt;GCodeMachineControl</title>
<path fill="none" stroke="black" d="M72.5,-355.95C72.5,-340.4 72.5,-317.34 72.5,-299.09"/>
<polygon fill="black" stroke="black" points="76,-299.15 72.5,-289.15 69,-299.15 76,-299.15"/>
<text text-anchor="start" x="72.5" y="-330.43" font-family="Helvetica,sans-Serif" font-size="10.00"> Parse Events;</text>
<text text-anchor="start" x="72.5" y="-319.43" font-family="Helvetica,sans-Serif" font-size="10.00"> Metric coordinates.</text>
<text text-anchor="middle" x="124" y="-308.43" font-family="Helvetica,sans-Serif" font-size="10.00"> Logic axes (X, Y, Z..)</text>
</g>
<!-- Planner -->
<g id="node3" class="node">
<title>Planner</title>
<polygon fill="none" stroke="black" points="114,-214.43 31,-214.43 31,-178.43 114,-178.43 114,-214.43"/>
<text text-anchor="middle" x="72.5" y="-193.93" font-family="Helvetica,sans-Serif" font-size="10.00">Path planning</text>
</g>
<!-- GCodeMachineControl&#45;&gt;Planner -->
<g id="edge3" class="edge">
<title>GCodeMachineControl&#45;&gt;Planner</title>
<path fill="none" stroke="black" d="M72.5,-251.24C72.5,-243.65 72.5,-234.53 72.5,-225.97"/>
<polygon fill="black" stroke="black" points="76,-225.97 72.5,-215.97 69,-225.97 76,-225.97"/>
</g>
<!-- MotorOperations -->
<g id="node4" class="node">
<title>MotorOperations</title>
<polygon fill="none" stroke="black" points="145,-120.43 0,-120.43 0,-79.43 145,-79.43 145,-120.43"/>
<text text-anchor="start" x="8" y="-108.43" font-family="Helvetica,sans-Serif" font-size="10.00">StatsMotorOperations</text>
<text text-anchor="start" x="8" y="-97.43" font-family="Helvetica,sans-Serif" font-size="10.00">Pretend to operate motors</text>
<text text-anchor="middle" x="72.5" y="-86.43" font-family="Helvetica,sans-Serif" font-size="10.00">calculate exact time.</text>
</g>
<!-- Planner&#45;&gt;MotorOperations -->
<g id="edge4" class="edge">
<title>Planner&#45;&gt;MotorOperations</title>
<path fill="none" stroke="black" d="M72.5,-178.09C72.5,-165.19 72.5,-147.22 72.5,-131.87"/>
<polygon fill="black" stroke="black" points="76,-132.28 72.5,-122.28 69,-132.28 76,-132.28"/>
<text text-anchor="start" x="72.5" y="-152.43" font-family="Helvetica,sans-Serif" font-size="10.00"> LinearSegmentSteps</text>
<text text-anchor="middle" x="124.5" y="-141.43" font-family="Helvetica,sans-Serif" font-size="10.00"> Step coordinates.</text>
</g>
<!-- CSVOut -->
<g id="node5" class="node">
<title>CSVOut</title>
<ellipse fill="none" stroke="black" cx="72.5" cy="-21.21" rx="69.09" ry="21.43"/>
<text text-anchor="middle" x="72.5" y="-24.21" font-family="Helvetica,sans-Serif" font-size="10.00">CSV output</text>
<text text-anchor="middle" x="72.5" y="-13.21" font-family="Helvetica,sans-Serif" font-size="10.00">Job runtime info.</text>
</g>
<!-- MotorOperations&#45;&gt;CSVOut -->
<g id="edge5" class="edge">
<title>MotorOperations&#45;&gt;CSVOut</title>
<path fill="none" stroke="black" d="M72.5,-79.17C72.5,-71.63 72.5,-62.82 72.5,-54.41"/>
<polygon fill="black" stroke="black" points="76,-54.49 72.5,-44.49 69,-54.49 76,-54.49"/>
</g>
<!-- File -->
<g id="node6" class="node">
<title>File</title>
<ellipse fill="none" stroke="black" cx="72.5" cy="-457.43" rx="27" ry="18"/>
<text text-anchor="middle" x="72.5" y="-454.93" font-family="Helvetica,sans-Serif" font-size="10.00">File</text>
</g>
<!-- File&#45;&gt;GCodeParser -->
<g id="edge1" class="edge">
<title>File&#45;&gt;GCodeParser</title>
<path fill="none" stroke="black" d="M72.5,-439.25C72.5,-429.12 72.5,-416.03 72.5,-404.34"/>
<polygon fill="black" stroke="black" points="76,-404.37 72.5,-394.37 69,-404.37 76,-404.37"/>
<text text-anchor="middle" x="91" y="-413.43" font-family="Helvetica,sans-Serif" font-size="10.00">G&#45;Code</text>
</g>
</g>
</svg>
