<?xml version="1.0" encoding="UTF-8" standalone="no"?>
<!DOCTYPE svg PUBLIC "-//W3C//DTD SVG 1.1//EN"
 "http://www.w3.org/Graphics/SVG/1.1/DTD/svg11.dtd">
<!-- Generated by graphviz version 2.38.0 (20140413.2041)
 -->
<!-- Title: beagleg Pages: 1 -->
<svg width="170pt" height="415pt"
 viewBox="0.00 0.00 170.00 415.43" xmlns="http://www.w3.org/2000/svg" xmlns:xlink="http://www.w3.org/1999/xlink">
<g id="graph0" class="graph" transform="scale(1 1) rotate(0) translate(4 411.426)">
<title>beagleg</title>
<polygon fill="white" stroke="none" points="-4,4 -4,-411.426 166,-411.426 166,4 -4,4"/>
<!-- GCodeParser -->
<g id="node1" class="node"><title>GCodeParser</title>
<polygon fill="none" stroke="black" points="103,-324.426 27,-324.426 27,-288.426 103,-288.426 103,-324.426"/>
<text text-anchor="middle" x="65" y="-303.926" font-family="Helvetica,sans-Serif" font-size="10.00">GCodeParser</text>
</g>
<!-- GCodeMachineControl -->
<g id="node2" class="node"><title>GCodeMachineControl</title>
<polygon fill="none" stroke="black" points="123,-219.426 7,-219.426 7,-178.426 123,-178.426 123,-219.426"/>
<text text-anchor="middle" x="65" y="-207.426" font-family="Helvetica,sans-Serif" font-size="10.00">GCodeMachineControl</text>
<text text-anchor="middle" x="65" y="-196.426" font-family="Helvetica,sans-Serif" font-size="10.00">GCode Actions</text>
<text text-anchor="middle" x="65" y="-185.426" font-family="Helvetica,sans-Serif" font-size="10.00">Path planning</text>
</g>
<!-- GCodeParser&#45;&gt;GCodeMachineControl -->
<g id="edge2" class="edge"><title>GCodeParser&#45;&gt;GCodeMachineControl</title>
<path fill="none" stroke="black" d="M65,-288.005C65,-272.178 65,-248.498 65,-229.676"/>
<polygon fill="black" stroke="black" points="68.5001,-229.527 65,-219.527 61.5001,-229.527 68.5001,-229.527"/>
<text text-anchor="start" x="65" y="-262.426" font-family="Helvetica,sans-Serif" font-size="10.00"> Parse Events;</text>
<text text-anchor="start" x="65" y="-251.426" font-family="Helvetica,sans-Serif" font-size="10.00"> Metric coordinates.</text>
<text text-anchor="middle" x="113.5" y="-240.426" font-family="Helvetica,sans-Serif" font-size="10.00"> Logic axes (X, Y, Z..)</text>
</g>
<!-- MotorOperations -->
<g id="node3" class="node"><title>MotorOperations</title>
<polygon fill="none" stroke="black" points="130,-120.426 0,-120.426 0,-79.4264 130,-79.4264 130,-120.426"/>
<text text-anchor="start" x="8" y="-108.426" font-family="Helvetica,sans-Serif" font-size="10.00">StatsMotorOperations</text>
<text text-anchor="start" x="8" y="-97.4264" font-family="Helvetica,sans-Serif" font-size="10.00">Pretend to operate motors</text>
<text text-anchor="middle" x="65" y="-86.4264" font-family="Helvetica,sans-Serif" font-size="10.00">calculate exact time.</text>
</g>
<!-- GCodeMachineControl&#45;&gt;MotorOperations -->
<g id="edge3" class="edge"><title>GCodeMachineControl&#45;&gt;MotorOperations</title>
<path fill="none" stroke="black" d="M65,-178.297C65,-164.623 65,-146.136 65,-130.662"/>
<polygon fill="black" stroke="black" points="68.5001,-130.527 65,-120.527 61.5001,-130.527 68.5001,-130.527"/>
<text text-anchor="start" x="65" y="-152.426" font-family="Helvetica,sans-Serif" font-size="10.00"> LinearSegmentSteps</text>
<text text-anchor="middle" x="112" y="-141.426" font-family="Helvetica,sans-Serif" font-size="10.00"> Step coordinates.</text>
</g>
<!-- CSVOut -->
<g id="node4" class="node"><title>CSVOut</title>
<ellipse fill="none" stroke="black" cx="65" cy="-21.2132" rx="53.066" ry="21.4286"/>
<text text-anchor="middle" x="65" y="-24.2132" font-family="Helvetica,sans-Serif" font-size="10.00">CSV output</text>
<text text-anchor="middle" x="65" y="-13.2132" font-family="Helvetica,sans-Serif" font-size="10.00">job statistics.</text>
</g>
<!-- MotorOperations&#45;&gt;CSVOut -->
<g id="edge4" class="edge"><title>MotorOperations&#45;&gt;CSVOut</title>
<path fill="none" stroke="black" d="M65,-79.1709C65,-71.0662 65,-61.4997 65,-52.5442"/>
<polygon fill="black" stroke="black" points="68.5001,-52.4361 65,-42.4361 61.5001,-52.4361 68.5001,-52.4361"/>
</g>
<!-- File -->
<g id="node5" class="node"><title>File</title>
<ellipse fill="none" stroke="black" cx="65" cy="-389.426" rx="27" ry="18"/>
<text text-anchor="middle" x="65" y="-386.926" font-family="Helvetica,sans-Serif" font-size="10.00">File</text>
</g>
<!-- File&#45;&gt;GCodeParser -->
<g id="edge1" class="edge"><title>File&#45;&gt;GCodeParser</title>
<path fill="none" stroke="black" d="M65,-371.248C65,-360.617 65,-346.732 65,-334.63"/>
<polygon fill="black" stroke="black" points="68.5001,-334.58 65,-324.58 61.5001,-334.58 68.5001,-334.58"/>
<text text-anchor="middle" x="82" y="-345.426" font-family="Helvetica,sans-Serif" font-size="10.00">G&#45;Code</text>
</g>
</g>
</svg>
